<?xml version="1.0" encoding="UTF-8"?>
<svg id="Capa_1" xmlns="http://www.w3.org/2000/svg" version="1.1" viewBox="0 0 166 166">
  <!-- Generator: Adobe Illustrator 29.5.1, SVG Export Plug-In . SVG Version: 2.1.0 Build 141)  -->
  <defs>
    <style>
      .st0 {
        stroke: #917f64;
        stroke-miterlimit: 10;
        stroke-width: 2px;
      }

      .st0, .st1 {
        fill: #917f64;
      }
    </style>
  </defs>
  <g>
    <path class="st1" d="M22.4,84.7v-1.2c1.6,0,3.1-.4,4.3-1.2,1.2-.8,1.8-2,1.8-3.4v-35.3h-6.4v-1.2c3.3,0,6.9-1.7,10.9-5,1.4-1.2,2.2-1.8,2.4-1.8.2,0,.3.2.3.6v42.9c0,1.4.6,2.5,1.9,3.3,1.2.8,2.6,1.2,4.2,1.2v1.2h-19.3Z"/>
    <path class="st1" d="M60.3,85.3c-3.9,0-7.1-1.1-9.5-3.3-2.4-2.2-3.8-4.7-4.1-7.5h1.5c.2,1.8.8,3.4,1.8,4.7.9,1.4,2.1,2.4,3.4,3,1.3.6,2.8,1.1,4.4,1.3,1.6.2,3.2,0,4.7-.4,1.5-.5,2.9-1.2,4.2-2.1,1.3-.9,2.3-2.2,3-3.8.8-1.6,1.2-3.5,1.2-5.5s-.4-3.8-1.1-5.4c-.8-1.5-1.7-2.7-2.7-3.6-1.1-.8-2.4-1.5-3.9-2-1.5-.5-2.9-.8-4.1-.9-1.2-.1-2.4-.2-3.8-.2v-1.2c1.6,0,3.3-.2,4.9-.6,1.6-.4,3.1-1,4.5-1.9,1.4-.8,2.6-2,3.4-3.5.9-1.5,1.3-3.1,1.4-5,0-3.6-1.4-6.1-4.5-7.4-2.8-1.2-5.7-1.1-8.7.3-3.4,1.5-5.5,3.9-6.2,7.4,0,.5-.2,1-.2,1.5h-1.3c0-5.1,2.1-9,6.4-11.6,3.5-2.1,7.4-2.8,11.6-2.1,4.2.7,7.2,2.7,8.9,6,.9,1.6,1.3,3.4,1.3,5.4,0,3.1-1.4,5.7-4.1,7.8-2.7,2.1-5.6,3.4-8.6,3.8,4.2.2,7.7,1.4,10.3,3.5,2.6,2.1,3.9,4.9,3.9,8.5,0,4.7-1.7,8.3-5.1,10.9-3.3,2.6-7.6,3.9-12.8,3.9Z"/>
    <path class="st1" d="M85.3,84.7v-1.2c1.6,0,3.1-.4,4.3-1.2,1.2-.8,1.8-2,1.8-3.4v-35.3h-6.4v-1.2c3.3,0,6.9-1.7,10.9-5,1.4-1.2,2.2-1.8,2.4-1.8.2,0,.3.2.3.6v42.9c0,1.4.6,2.5,1.9,3.3,1.2.8,2.6,1.2,4.2,1.2v1.2h-19.3Z"/>
    <path class="st1" d="M127.5,85.2c-4.1,0-7.7-1.2-10.5-3.7-2.9-2.5-4.9-5.5-6.2-9.1-1.2-3.6-1.9-7.5-1.9-11.7,0-7.5,1.7-13.5,5.2-18.1,3.5-4.6,7.9-6.9,13.4-6.9s7.5,1.2,10.4,3.7c2.9,2.5,4.9,5.5,6.2,9.2,1.3,3.7,1.9,7.7,1.9,12.1,0,7.3-1.7,13.2-5.1,17.7-3.4,4.5-7.9,6.7-13.3,6.7ZM127.5,83.9c6.5,0,10.1-7.7,10.1-23.1s-.2-4.9-.6-7.4c-.4-2.6-.9-5.2-1.6-7.7-.7-2.5-1.7-4.6-3-6.2-1.3-1.6-3.2-2.5-4.9-2.5s-3.5.8-4.8,2.5c-1.3,1.6-2.3,3.7-3.1,6.2-.8,2.5-1.3,5.1-1.7,7.7-.4,2.6-.6,5.1-.6,7.4s.2,4.8.6,7.3c.4,2.6.9,5,1.7,7.5.7,2.4,1.8,4.4,3.1,6s3.3,2.3,4.9,2.3Z"/>
  </g>
  <g>
    <path class="st1" d="M30.3,130.4c-.5,0-1.1-.2-1.8-.3-.7-.2-1.4-.4-1.9-.6-.5-.2-1-.3-1.5-.4-.5,0-.8,0-.8.2v-4.6h.3c0,1.6.8,2.9,2.3,3.9,1.3.9,2.7,1.3,4.2,1.2,1.5-.1,2.4-.8,2.8-2,.2-.4.2-1,.2-1.5,0-.7-.3-1.4-.7-2.1-.4-.6-.9-1.2-1.5-1.6-.6-.5-1.2-.9-2-1.3-.7-.4-1.4-.9-2.1-1.3-.7-.4-1.3-.9-1.8-1.4-.6-.5-1-1.1-1.3-1.8-.3-.7-.4-1.5-.3-2.3.3-3.2,2.3-4.8,5.9-4.8s.9,0,1.4.1c.5,0,1,.2,1.5.3.4.1.9.2,1.3.3.4,0,.7.1,1,0,.3,0,.4-.1.5-.3v4.7h-.3c0-1.5-.7-2.8-2-3.7-1.2-.8-2.4-1.1-3.7-.9-1.4.2-2.2,1-2.6,2.3,0,.2-.1.5-.2.7-.1.8,0,1.6.5,2.3.4.7,1,1.3,1.7,1.7.7.5,1.4.9,2.3,1.5.8.5,1.6,1,2.4,1.5.7.5,1.4,1.1,1.9,1.8.5.7.8,1.6.9,2.5,0,.9,0,1.8-.3,2.5-.2.7-.6,1.3-1,1.7-.4.4-.9.7-1.5,1-.6.2-1.2.4-1.8.5-.6,0-1.1,0-1.7,0Z"/>
    <path class="st1" d="M46.4,130.2v-.3c1.3,0,1.9-.5,1.9-1.4v-17.9h-3.8c-.7,0-1.3.3-1.6.8-.4.6-.6,1.2-.6,2h-.3v-3.3h15.5v3.3h-.3c0-.7-.2-1.3-.6-1.9-.4-.6-.9-.9-1.6-.9h-3.8v17.9c0,.5.2.8.6,1,.4.2.8.3,1.4.3v.3h-6.8Z"/>
    <path class="st1" d="M72.7,130.7c-1,0-2-.2-2.9-.5-1-.3-1.9-.8-2.7-1.5-.8-.6-1.5-1.5-2-2.5-.5-1.1-.7-2.3-.7-3.6v-10.8c0-1-.5-1.5-1.6-1.5v-.3h6.1v.3c-1.1,0-1.6.5-1.6,1.5v11.4c0,2,.6,3.6,1.8,4.7,1.2,1.1,2.6,1.7,4.1,1.7s3.1-.5,4.1-1.5c1.1-1,1.6-2.6,1.6-4.8v-11.5c0-.4-.1-.8-.4-1.1-.3-.3-.7-.4-1.2-.4v-.3h3.7v.3c-1.1,0-1.6.5-1.6,1.5v11.3c0,1-.1,2-.3,2.9-.2.9-.6,1.7-1.1,2.4-.5.7-1.2,1.3-2.1,1.7-.9.4-2,.6-3.2.6Z"/>
    <path class="st1" d="M86.4,130.2v-.3c1.3-.3,2-1,2-2v-15.2c0-.6-.1-1-.4-1.3-.3-.3-.8-.6-1.6-.9v-.3h8.2c1.1,0,2.1,0,3,.3,1,.2,1.9.5,2.9,1,.9.5,1.8,1.1,2.4,1.9.7.7,1.2,1.7,1.7,2.9.4,1.2.6,2.5.6,4s-.2,3-.6,4.2c-.4,1.2-1,2.2-1.7,2.9-.7.7-1.5,1.3-2.5,1.8-1,.5-1.9.8-2.9,1-.9.2-1.9.3-3,.3h-8.2ZM91.3,129.2c1.8.4,3.3.4,4.7.1,1.4-.3,2.5-.9,3.4-1.7.9-.9,1.6-1.9,2.1-3.2.5-1.3.7-2.7.7-4.3s-.2-2.9-.7-4.2c-.5-1.3-1.2-2.3-2.1-3.2-.9-.9-2.1-1.5-3.4-1.8-1.4-.3-2.9-.2-4.7.2v18.1Z"/>
    <path class="st1" d="M111.8,130.2v-.3c.5,0,.9-.2,1.2-.5.3-.3.4-.8.4-1.3v-16.1c0-.5-.1-.9-.4-1.2-.3-.3-.7-.4-1.2-.4v-.3h6.1v.3c-.5,0-.9.1-1.2.4-.3.3-.4.7-.4,1.2v16.2c0,.5.1.9.4,1.2.3.3.7.5,1.2.5v.3h-6.1Z"/>
    <path class="st1" d="M133.8,130.8c-2.7,0-5-1.1-7-3.1-2-2-3-4.5-3-7.3s.9-5.5,2.7-7.5c1.8-2,4.2-3,7.2-3s5.2,1,7.1,3.1c1.9,2,2.9,4.5,2.9,7.4s-.4,3.7-1.1,5.3c-.8,1.6-1.9,2.8-3.5,3.8-1.5.9-3.3,1.4-5.4,1.4ZM134.1,130.1c1.4,0,2.7-.4,3.7-1.4,1.1-1,1.8-2.3,2.3-3.8.5-1.5.7-3.2.6-4.8,0-1.7-.4-3.2-1-4.7s-1.4-2.7-2.6-3.6c-1.1-1-2.4-1.4-3.8-1.3-1.5,0-2.8.6-3.8,1.7-1,1.1-1.7,2.4-2.1,3.9-.4,1.5-.5,3.1-.5,4.7.1,2.5.9,4.7,2.3,6.5,1.4,1.8,3,2.8,5,2.9Z"/>
  </g>
  <line class="st1" x1="11.7" y1="97.2" x2="158.2" y2="97.2"/>
  <rect class="st0" x="7.8" y="97.4" width="146.5" height=".4"/>
</svg>